<svg width="136" height="30" viewBox="0 0 136 30" fill="none" xmlns="http://www.w3.org/2000/svg">
<path fill-rule="evenodd" clip-rule="evenodd" d="M13 5.2666H9V24.7333H13V5.2666ZM21.0001 5.26666H17.0001V24.7333H21.0001V5.26666Z" fill="#FAFAFA"/>
<path d="M51.4375 21V9.72656H58.4219V10.9922H52.8438V14.6094H58.1328V15.8594H52.8438V19.7344H58.4219V21H51.4375ZM60.875 21V9.23438H62.2344V21H60.875ZM68.2812 21.1484C67.4792 21.1484 66.7891 20.9714 66.2109 20.6172C65.638 20.263 65.1953 19.763 64.8828 19.1172C64.5755 18.4661 64.4219 17.7005 64.4219 16.8203V16.8125C64.4219 15.9427 64.5755 15.1797 64.8828 14.5234C65.1953 13.8672 65.6354 13.3542 66.2031 12.9844C66.7708 12.6146 67.4349 12.4297 68.1953 12.4297C68.9609 12.4297 69.6172 12.6068 70.1641 12.9609C70.7161 13.3151 71.138 13.8099 71.4297 14.4453C71.7266 15.0755 71.875 15.8099 71.875 16.6484V17.1797H65.125V16.0938H71.1797L70.5078 17.0859V16.5469C70.5078 15.8854 70.4089 15.3411 70.2109 14.9141C70.013 14.487 69.7396 14.1693 69.3906 13.9609C69.0417 13.7474 68.6406 13.6406 68.1875 13.6406C67.7344 13.6406 67.3281 13.7526 66.9688 13.9766C66.6146 14.1953 66.3333 14.5208 66.125 14.9531C65.9167 15.3854 65.8125 15.9167 65.8125 16.5469V17.0859C65.8125 17.6849 65.9141 18.1979 66.1172 18.625C66.3203 19.0469 66.6094 19.3724 66.9844 19.6016C67.3594 19.8255 67.8021 19.9375 68.3125 19.9375C68.6927 19.9375 69.0234 19.8854 69.3047 19.7812C69.5859 19.6771 69.8177 19.5443 70 19.3828C70.1823 19.2214 70.3099 19.0573 70.3828 18.8906L70.4141 18.8203H71.7734L71.7578 18.8828C71.6849 19.1693 71.5547 19.4479 71.3672 19.7188C71.1849 19.9844 70.9479 20.2266 70.6562 20.4453C70.3646 20.6589 70.0182 20.8307 69.6172 20.9609C69.2214 21.0859 68.776 21.1484 68.2812 21.1484ZM76.2109 21L73.0938 12.5781H74.5312L76.8359 19.5156H76.9609L79.2656 12.5781H80.7031L77.5859 21H76.2109ZM85.625 21.1484C84.8229 21.1484 84.1328 20.9714 83.5547 20.6172C82.9818 20.263 82.5391 19.763 82.2266 19.1172C81.9193 18.4661 81.7656 17.7005 81.7656 16.8203V16.8125C81.7656 15.9427 81.9193 15.1797 82.2266 14.5234C82.5391 13.8672 82.9792 13.3542 83.5469 12.9844C84.1146 12.6146 84.7786 12.4297 85.5391 12.4297C86.3047 12.4297 86.9609 12.6068 87.5078 12.9609C88.0599 13.3151 88.4818 13.8099 88.7734 14.4453C89.0703 15.0755 89.2188 15.8099 89.2188 16.6484V17.1797H82.4688V16.0938H88.5234L87.8516 17.0859V16.5469C87.8516 15.8854 87.7526 15.3411 87.5547 14.9141C87.3568 14.487 87.0833 14.1693 86.7344 13.9609C86.3854 13.7474 85.9844 13.6406 85.5312 13.6406C85.0781 13.6406 84.6719 13.7526 84.3125 13.9766C83.9583 14.1953 83.6771 14.5208 83.4688 14.9531C83.2604 15.3854 83.1562 15.9167 83.1562 16.5469V17.0859C83.1562 17.6849 83.2578 18.1979 83.4609 18.625C83.6641 19.0469 83.9531 19.3724 84.3281 19.6016C84.7031 19.8255 85.1458 19.9375 85.6562 19.9375C86.0365 19.9375 86.3672 19.8854 86.6484 19.7812C86.9297 19.6771 87.1615 19.5443 87.3438 19.3828C87.526 19.2214 87.6536 19.0573 87.7266 18.8906L87.7578 18.8203H89.1172L89.1016 18.8828C89.0286 19.1693 88.8984 19.4479 88.7109 19.7188C88.5286 19.9844 88.2917 20.2266 88 20.4453C87.7083 20.6589 87.362 20.8307 86.9609 20.9609C86.5651 21.0859 86.1198 21.1484 85.625 21.1484ZM91.3281 21V12.5781H92.6875V13.8438H92.8125C93.026 13.3958 93.3333 13.0495 93.7344 12.8047C94.1354 12.5547 94.6458 12.4297 95.2656 12.4297C96.2135 12.4297 96.9401 12.7005 97.4453 13.2422C97.9557 13.7786 98.2109 14.5469 98.2109 15.5469V21H96.8516V15.875C96.8516 15.1146 96.6901 14.5521 96.3672 14.1875C96.0495 13.8177 95.5547 13.6328 94.8828 13.6328C94.4349 13.6328 94.0469 13.7292 93.7188 13.9219C93.3906 14.1146 93.1354 14.388 92.9531 14.7422C92.776 15.0964 92.6875 15.5208 92.6875 16.0156V21H91.3281ZM100.844 21V9.72656H102.25V19.7344H107.688V21H100.844ZM112.078 21.1484C111.547 21.1484 111.068 21.0469 110.641 20.8438C110.219 20.6406 109.883 20.3516 109.633 19.9766C109.388 19.6016 109.266 19.1589 109.266 18.6484V18.6328C109.266 18.1328 109.385 17.7057 109.625 17.3516C109.865 16.9922 110.214 16.7109 110.672 16.5078C111.13 16.3047 111.685 16.1849 112.336 16.1484L115.43 15.9609V17.0469L112.5 17.2344C111.859 17.2708 111.391 17.4036 111.094 17.6328C110.802 17.862 110.656 18.1849 110.656 18.6016V18.6172C110.656 19.0443 110.818 19.3776 111.141 19.6172C111.464 19.8516 111.87 19.9688 112.359 19.9688C112.823 19.9688 113.234 19.8776 113.594 19.6953C113.953 19.5078 114.234 19.2552 114.438 18.9375C114.646 18.6198 114.75 18.2604 114.75 17.8594V15.2344C114.75 14.7135 114.591 14.3177 114.273 14.0469C113.961 13.7708 113.49 13.6328 112.859 13.6328C112.354 13.6328 111.94 13.724 111.617 13.9062C111.294 14.0833 111.078 14.3359 110.969 14.6641L110.961 14.6875H109.602L109.609 14.6406C109.682 14.1979 109.865 13.8125 110.156 13.4844C110.453 13.151 110.836 12.8932 111.305 12.7109C111.773 12.5234 112.307 12.4297 112.906 12.4297C113.594 12.4297 114.174 12.5417 114.648 12.7656C115.128 12.9896 115.49 13.3125 115.734 13.7344C115.984 14.151 116.109 14.651 116.109 15.2344V21H114.75V19.7578H114.625C114.448 20.0547 114.232 20.3073 113.977 20.5156C113.727 20.724 113.443 20.8828 113.125 20.9922C112.807 21.0964 112.458 21.1484 112.078 21.1484ZM122.781 21.1484C122.391 21.1484 122.029 21.0885 121.695 20.9688C121.362 20.849 121.065 20.6797 120.805 20.4609C120.544 20.237 120.328 19.9688 120.156 19.6562H120.031V21H118.672V9.23438H120.031V13.9062H120.156C120.312 13.6042 120.521 13.3438 120.781 13.125C121.047 12.9062 121.349 12.737 121.688 12.6172C122.031 12.4922 122.396 12.4297 122.781 12.4297C123.495 12.4297 124.115 12.6094 124.641 12.9688C125.172 13.3281 125.583 13.8333 125.875 14.4844C126.167 15.1354 126.312 15.901 126.312 16.7812V16.7969C126.312 17.6719 126.167 18.4375 125.875 19.0938C125.583 19.7448 125.172 20.25 124.641 20.6094C124.115 20.9688 123.495 21.1484 122.781 21.1484ZM122.469 19.9453C122.984 19.9453 123.424 19.8203 123.789 19.5703C124.154 19.3151 124.432 18.9531 124.625 18.4844C124.823 18.0104 124.922 17.4479 124.922 16.7969V16.7812C124.922 16.125 124.823 15.5625 124.625 15.0938C124.432 14.625 124.154 14.2656 123.789 14.0156C123.424 13.7604 122.984 13.6328 122.469 13.6328C121.958 13.6328 121.518 13.7604 121.148 14.0156C120.779 14.2708 120.495 14.6328 120.297 15.1016C120.099 15.5703 120 16.1302 120 16.7812V16.7969C120 17.4427 120.099 18.0026 120.297 18.4766C120.495 18.9453 120.779 19.3073 121.148 19.5625C121.518 19.8177 121.958 19.9453 122.469 19.9453ZM131.312 21.1484C130.688 21.1484 130.135 21.0547 129.656 20.8672C129.177 20.6745 128.792 20.4062 128.5 20.0625C128.214 19.7188 128.044 19.3151 127.992 18.8516H129.383C129.497 19.2005 129.721 19.4818 130.055 19.6953C130.388 19.9089 130.823 20.0156 131.359 20.0156C131.74 20.0156 132.073 19.9609 132.359 19.8516C132.651 19.737 132.88 19.5833 133.047 19.3906C133.214 19.1927 133.297 18.9661 133.297 18.7109V18.6953C133.297 18.4089 133.182 18.1667 132.953 17.9688C132.724 17.7656 132.349 17.6016 131.828 17.4766L130.523 17.1641C129.997 17.0391 129.565 16.8776 129.227 16.6797C128.888 16.4766 128.638 16.2292 128.477 15.9375C128.315 15.6406 128.234 15.2917 128.234 14.8906V14.8828C128.234 14.4141 128.37 13.9948 128.641 13.625C128.917 13.2552 129.292 12.9635 129.766 12.75C130.24 12.5365 130.773 12.4297 131.367 12.4297C131.956 12.4297 132.477 12.5234 132.93 12.7109C133.388 12.8932 133.755 13.1536 134.031 13.4922C134.312 13.8307 134.484 14.2292 134.547 14.6875H133.211C133.122 14.3542 132.919 14.0833 132.602 13.875C132.284 13.6667 131.87 13.5625 131.359 13.5625C131.026 13.5625 130.729 13.6172 130.469 13.7266C130.208 13.8307 130.003 13.9766 129.852 14.1641C129.701 14.3516 129.625 14.5703 129.625 14.8203V14.8359C129.625 15.0234 129.674 15.1901 129.773 15.3359C129.872 15.4818 130.026 15.6094 130.234 15.7188C130.443 15.8281 130.711 15.9245 131.039 16.0078L132.336 16.3203C133.128 16.513 133.716 16.7891 134.102 17.1484C134.492 17.5078 134.688 17.9896 134.688 18.5938V18.6094C134.688 19.1094 134.539 19.5521 134.242 19.9375C133.945 20.3177 133.542 20.6146 133.031 20.8281C132.526 21.0417 131.953 21.1484 131.312 21.1484Z" fill="#FAFAFA"/>
</svg>
