<svg width="120" height="30" viewBox="0 0 120 30" fill="none" xmlns="http://www.w3.org/2000/svg">
<g clip-path="url(#clip0_253_4168)">
<path fill-rule="evenodd" clip-rule="evenodd" d="M7.485 2.0275C6.36021 3.12761 5.49253 4.46278 4.94407 5.93743C4.39562 7.41209 4.17995 8.98975 4.3125 10.5575C4.74875 16.0675 9.945 20.5513 14.6575 20.5513C19.0413 20.5513 20.7575 16.725 20.3337 14.1262C20.1773 13.1717 19.7671 12.2767 19.1462 11.535C19.9363 11.96 20.7013 12.505 21.4075 13.16C23.3075 14.9288 24.4575 17.1963 24.6412 19.535C25.05 24.7038 21.225 30 14.8287 30C12.71 30 10.4788 29.46 8.60375 28.5713C3.52 26.1713 0 20.9963 0 15.0025C0 9.46375 3.00625 4.625 7.485 2.0275ZM15.17 0C17.29 0 19.5212 0.54 21.395 1.42875C26.4825 3.82875 30 9.00375 30 14.9975C30 20.5363 26.9937 25.3763 22.515 27.9725C23.6398 26.8724 24.5075 25.5372 25.0559 24.0626C25.6044 22.5879 25.8201 21.0102 25.6875 19.4425C25.2512 13.9325 20.055 9.44875 15.3425 9.44875C10.9587 9.44875 9.2425 13.275 9.66625 15.8738C9.82276 16.829 10.2343 17.7243 10.8575 18.465C10.037 18.0223 9.27659 17.4762 8.595 16.84C6.695 15.0712 5.545 12.8062 5.35875 10.465C4.95 5.29625 8.775 0 15.1713 0H15.17Z" fill="#FAFAFA"/>
</g>
<path d="M51.4375 21V9.72656H52.8438V21H51.4375ZM55.5469 21V12.5781H56.9062V13.8594H57.0312C57.2188 13.4062 57.5052 13.0547 57.8906 12.8047C58.2812 12.5547 58.7526 12.4297 59.3047 12.4297C59.6849 12.4297 60.026 12.4922 60.3281 12.6172C60.6302 12.7422 60.8906 12.9167 61.1094 13.1406C61.3281 13.3594 61.5026 13.6146 61.6328 13.9062H61.7578C61.9089 13.6094 62.112 13.3516 62.3672 13.1328C62.6224 12.9089 62.9167 12.737 63.25 12.6172C63.5885 12.4922 63.9505 12.4297 64.3359 12.4297C64.9089 12.4297 65.3932 12.5365 65.7891 12.75C66.1901 12.9635 66.4948 13.276 66.7031 13.6875C66.9115 14.0938 67.0156 14.5911 67.0156 15.1797V21H65.6562V15.4922C65.6562 15.0755 65.5911 14.7318 65.4609 14.4609C65.3359 14.1849 65.1432 13.9792 64.8828 13.8438C64.6224 13.7031 64.2943 13.6328 63.8984 13.6328C63.5078 13.6328 63.1667 13.7214 62.875 13.8984C62.5833 14.0755 62.3568 14.3125 62.1953 14.6094C62.0339 14.901 61.9531 15.2266 61.9531 15.5859V21H60.5938V15.2812C60.5938 14.9479 60.5208 14.6589 60.375 14.4141C60.2344 14.1641 60.0312 13.9714 59.7656 13.8359C59.5052 13.7005 59.1979 13.6328 58.8438 13.6328C58.4792 13.6328 58.1484 13.7292 57.8516 13.9219C57.5599 14.1146 57.3281 14.375 57.1562 14.7031C56.9896 15.026 56.9062 15.3854 56.9062 15.7812V21H55.5469ZM71.7812 21.1484C71.25 21.1484 70.7708 21.0469 70.3438 20.8438C69.9219 20.6406 69.5859 20.3516 69.3359 19.9766C69.0911 19.6016 68.9688 19.1589 68.9688 18.6484V18.6328C68.9688 18.1328 69.0885 17.7057 69.3281 17.3516C69.5677 16.9922 69.9167 16.7109 70.375 16.5078C70.8333 16.3047 71.388 16.1849 72.0391 16.1484L75.1328 15.9609V17.0469L72.2031 17.2344C71.5625 17.2708 71.0938 17.4036 70.7969 17.6328C70.5052 17.862 70.3594 18.1849 70.3594 18.6016V18.6172C70.3594 19.0443 70.5208 19.3776 70.8438 19.6172C71.1667 19.8516 71.5729 19.9688 72.0625 19.9688C72.526 19.9688 72.9375 19.8776 73.2969 19.6953C73.6562 19.5078 73.9375 19.2552 74.1406 18.9375C74.349 18.6198 74.4531 18.2604 74.4531 17.8594V15.2344C74.4531 14.7135 74.2943 14.3177 73.9766 14.0469C73.6641 13.7708 73.1927 13.6328 72.5625 13.6328C72.0573 13.6328 71.6432 13.724 71.3203 13.9062C70.9974 14.0833 70.7812 14.3359 70.6719 14.6641L70.6641 14.6875H69.3047L69.3125 14.6406C69.3854 14.1979 69.5677 13.8125 69.8594 13.4844C70.1562 13.151 70.5391 12.8932 71.0078 12.7109C71.4766 12.5234 72.0104 12.4297 72.6094 12.4297C73.2969 12.4297 73.8776 12.5417 74.3516 12.7656C74.8307 12.9896 75.1927 13.3125 75.4375 13.7344C75.6875 14.151 75.8125 14.651 75.8125 15.2344V21H74.4531V19.7578H74.3281C74.151 20.0547 73.9349 20.3073 73.6797 20.5156C73.4297 20.724 73.1458 20.8828 72.8281 20.9922C72.5104 21.0964 72.1615 21.1484 71.7812 21.1484ZM81.7656 23.9688C81.0885 23.9688 80.4974 23.8724 79.9922 23.6797C79.487 23.4922 79.0833 23.224 78.7812 22.875C78.4844 22.5312 78.2995 22.1302 78.2266 21.6719L78.2422 21.6641H79.6484L79.6562 21.6719C79.7292 21.9896 79.9479 22.25 80.3125 22.4531C80.6771 22.6615 81.1615 22.7656 81.7656 22.7656C82.5208 22.7656 83.1094 22.5938 83.5312 22.25C83.9583 21.9115 84.1719 21.4323 84.1719 20.8125V19.1094H84.0469C83.8698 19.4167 83.6484 19.6797 83.3828 19.8984C83.1172 20.1172 82.8177 20.2839 82.4844 20.3984C82.151 20.5078 81.7917 20.5625 81.4062 20.5625C80.6823 20.5625 80.0547 20.3906 79.5234 20.0469C78.9974 19.6979 78.5911 19.2188 78.3047 18.6094C78.0182 18 77.875 17.3021 77.875 16.5156V16.5C77.875 15.7135 78.0182 15.0156 78.3047 14.4062C78.5964 13.7917 79.0078 13.3099 79.5391 12.9609C80.0703 12.6068 80.7031 12.4297 81.4375 12.4297C81.8333 12.4297 82.1979 12.4922 82.5312 12.6172C82.8646 12.7422 83.1589 12.9193 83.4141 13.1484C83.6745 13.3776 83.8906 13.651 84.0625 13.9688H84.1562V12.5781H85.5156V20.8828C85.5156 21.5078 85.362 22.0521 85.0547 22.5156C84.7526 22.9792 84.3203 23.3359 83.7578 23.5859C83.1953 23.8411 82.5312 23.9688 81.7656 23.9688ZM81.7031 19.3594C82.224 19.3594 82.6693 19.2396 83.0391 19C83.4141 18.7552 83.7005 18.4193 83.8984 17.9922C84.1016 17.5651 84.2031 17.0729 84.2031 16.5156V16.5C84.2031 15.9427 84.1016 15.4479 83.8984 15.0156C83.7005 14.5833 83.4141 14.2448 83.0391 14C82.6693 13.7552 82.224 13.6328 81.7031 13.6328C81.1823 13.6328 80.7396 13.7552 80.375 14C80.0156 14.2448 79.7396 14.5833 79.5469 15.0156C79.3594 15.4479 79.2656 15.9427 79.2656 16.5V16.5156C79.2656 17.0729 79.3594 17.5651 79.5469 17.9922C79.7396 18.4193 80.0156 18.7552 80.375 19C80.7396 19.2396 81.1823 19.3594 81.7031 19.3594ZM91.4844 21.1484C90.6823 21.1484 89.9922 20.9714 89.4141 20.6172C88.8411 20.263 88.3984 19.763 88.0859 19.1172C87.7786 18.4661 87.625 17.7005 87.625 16.8203V16.8125C87.625 15.9427 87.7786 15.1797 88.0859 14.5234C88.3984 13.8672 88.8385 13.3542 89.4062 12.9844C89.974 12.6146 90.638 12.4297 91.3984 12.4297C92.1641 12.4297 92.8203 12.6068 93.3672 12.9609C93.9193 13.3151 94.3411 13.8099 94.6328 14.4453C94.9297 15.0755 95.0781 15.8099 95.0781 16.6484V17.1797H88.3281V16.0938H94.3828L93.7109 17.0859V16.5469C93.7109 15.8854 93.612 15.3411 93.4141 14.9141C93.2161 14.487 92.9427 14.1693 92.5938 13.9609C92.2448 13.7474 91.8438 13.6406 91.3906 13.6406C90.9375 13.6406 90.5312 13.7526 90.1719 13.9766C89.8177 14.1953 89.5365 14.5208 89.3281 14.9531C89.1198 15.3854 89.0156 15.9167 89.0156 16.5469V17.0859C89.0156 17.6849 89.1172 18.1979 89.3203 18.625C89.5234 19.0469 89.8125 19.3724 90.1875 19.6016C90.5625 19.8255 91.0052 19.9375 91.5156 19.9375C91.8958 19.9375 92.2266 19.8854 92.5078 19.7812C92.7891 19.6771 93.0208 19.5443 93.2031 19.3828C93.3854 19.2214 93.513 19.0573 93.5859 18.8906L93.6172 18.8203H94.9766L94.9609 18.8828C94.888 19.1693 94.7578 19.4479 94.5703 19.7188C94.388 19.9844 94.151 20.2266 93.8594 20.4453C93.5677 20.6589 93.2214 20.8307 92.8203 20.9609C92.4245 21.0859 91.9792 21.1484 91.4844 21.1484ZM97.1875 21V12.5781H98.5469V13.8438H98.6719C98.8854 13.3958 99.1927 13.0495 99.5938 12.8047C99.9948 12.5547 100.505 12.4297 101.125 12.4297C102.073 12.4297 102.799 12.7005 103.305 13.2422C103.815 13.7786 104.07 14.5469 104.07 15.5469V21H102.711V15.875C102.711 15.1146 102.549 14.5521 102.227 14.1875C101.909 13.8177 101.414 13.6328 100.742 13.6328C100.294 13.6328 99.9062 13.7292 99.5781 13.9219C99.25 14.1146 98.9948 14.388 98.8125 14.7422C98.6354 15.0964 98.5469 15.5208 98.5469 16.0156V21H97.1875ZM114.859 21.1875C114.083 21.1875 113.406 21.0547 112.828 20.7891C112.25 20.5234 111.792 20.1589 111.453 19.6953C111.12 19.2318 110.927 18.7031 110.875 18.1094L110.867 18.0156H112.219L112.227 18.0938C112.263 18.4635 112.393 18.7891 112.617 19.0703C112.846 19.3516 113.151 19.5729 113.531 19.7344C113.917 19.8906 114.359 19.9688 114.859 19.9688C115.354 19.9688 115.786 19.8828 116.156 19.7109C116.531 19.5391 116.823 19.3021 117.031 19C117.24 18.6927 117.344 18.3411 117.344 17.9453V17.9297C117.344 17.237 117.112 16.7057 116.648 16.3359C116.19 15.9609 115.565 15.7734 114.773 15.7734H113.359V14.5859H114.711C115.159 14.5859 115.555 14.5026 115.898 14.3359C116.242 14.1641 116.51 13.9323 116.703 13.6406C116.896 13.3438 116.992 13.0078 116.992 12.6328V12.6172C116.992 12.2214 116.909 11.8854 116.742 11.6094C116.576 11.3333 116.331 11.1224 116.008 10.9766C115.69 10.8307 115.302 10.7578 114.844 10.7578C114.401 10.7578 114.005 10.8333 113.656 10.9844C113.312 11.1302 113.036 11.3411 112.828 11.6172C112.62 11.8932 112.495 12.2214 112.453 12.6016L112.445 12.6797H111.094L111.102 12.6016C111.164 11.987 111.357 11.4505 111.68 10.9922C112.008 10.5339 112.44 10.1771 112.977 9.92188C113.518 9.66667 114.141 9.53906 114.844 9.53906C115.562 9.53906 116.188 9.66406 116.719 9.91406C117.255 10.1589 117.669 10.5 117.961 10.9375C118.258 11.3698 118.406 11.8724 118.406 12.4453V12.4609C118.406 12.9245 118.305 13.3359 118.102 13.6953C117.898 14.0547 117.617 14.3542 117.258 14.5938C116.898 14.8333 116.484 15.0026 116.016 15.1016V15.1328C116.839 15.2005 117.503 15.4792 118.008 15.9688C118.518 16.4531 118.773 17.0964 118.773 17.8984V17.9141C118.773 18.5391 118.604 19.099 118.266 19.5938C117.927 20.0885 117.464 20.4792 116.875 20.7656C116.286 21.0469 115.615 21.1875 114.859 21.1875Z" fill="#FAFAFA"/>
<defs>
<clipPath id="clip0_253_4168">
<rect width="30" height="30" fill="white"/>
</clipPath>
</defs>
</svg>
