<svg width="114" height="30" viewBox="0 0 114 30" fill="none" xmlns="http://www.w3.org/2000/svg">
<g clip-path="url(#clip0_253_4109)">
<path fill-rule="evenodd" clip-rule="evenodd" d="M6.8664 26.3817C5.47638 24.5679 5.48013 21.0529 6.76515 17.0578L1.06883 13.7703C0.773575 13.6042 0.522792 13.3693 0.337805 13.0855C0.152818 12.8017 0.039099 12.4775 0.00631673 12.1403C-0.0153156 11.877 0.0187578 11.6121 0.106318 11.3628C0.448777 10.3845 0.882789 9.44072 1.40258 8.54399C5.74764 1.0189 15.0477 -1.74363 22.1766 2.37142C22.7516 2.70392 23.2016 3.20893 23.5279 3.85144C24.5091 5.78271 24.3841 8.9715 23.2353 12.544L28.9317 15.8328C29.3554 16.0778 29.6767 16.4478 29.8517 16.8728C30.0337 17.3075 30.0488 17.794 29.8942 18.2391C29.552 19.2175 29.1179 20.1613 28.5979 21.0579C24.2529 28.583 14.9527 31.3455 7.82391 27.2305C7.45154 27.0134 7.12605 26.7257 6.8664 26.3817ZM20.7366 18.1129C18.1453 22.6017 13.4765 24.7579 10.3077 22.9279C8.72392 22.0142 7.81516 20.2754 7.62641 18.2054C7.50766 16.9116 7.67141 15.4891 8.12642 14.0553C8.39767 13.2003 8.77267 12.3428 9.25393 11.5065L9.26393 11.489C11.8552 7.00147 16.524 4.8452 19.6928 6.67397C20.4841 7.13148 21.1053 7.79274 21.5553 8.599C22.7878 10.814 22.7078 14.1178 21.1991 17.2416C21.0603 17.5291 20.9091 17.8129 20.7466 18.0954L20.7366 18.1129Z" fill="#FAFAFA"/>
</g>
<path d="M52.6875 17.2344L52.6094 15.2031H52.9688L57.9062 9.72656H59.6719L55.0078 14.7656L54.3516 15.3984L52.6875 17.2344ZM51.4375 21V9.72656H52.8438V21H51.4375ZM58.2656 21L54.0547 15.3828L55.0234 14.4062L60.0859 21H58.2656ZM61.8906 21V9.23438H63.25V21H61.8906ZM65.8906 21V12.5781H67.25V21H65.8906ZM66.5781 10.9531C66.3229 10.9531 66.1016 10.862 65.9141 10.6797C65.7318 10.4922 65.6406 10.2708 65.6406 10.0156C65.6406 9.75521 65.7318 9.53385 65.9141 9.35156C66.1016 9.16927 66.3229 9.07812 66.5781 9.07812C66.8385 9.07812 67.0599 9.16927 67.2422 9.35156C67.4245 9.53385 67.5156 9.75521 67.5156 10.0156C67.5156 10.2708 67.4245 10.4922 67.2422 10.6797C67.0599 10.862 66.8385 10.9531 66.5781 10.9531ZM69.8125 21V12.5781H71.1719V13.8438H71.2969C71.5104 13.3958 71.8177 13.0495 72.2188 12.8047C72.6198 12.5547 73.1302 12.4297 73.75 12.4297C74.6979 12.4297 75.4245 12.7005 75.9297 13.2422C76.4401 13.7786 76.6953 14.5469 76.6953 15.5469V21H75.3359V15.875C75.3359 15.1146 75.1745 14.5521 74.8516 14.1875C74.5339 13.8177 74.0391 13.6328 73.3672 13.6328C72.9193 13.6328 72.5312 13.7292 72.2031 13.9219C71.875 14.1146 71.6198 14.388 71.4375 14.7422C71.2604 15.0964 71.1719 15.5208 71.1719 16.0156V21H69.8125ZM82.625 23.9688C81.9479 23.9688 81.3568 23.8724 80.8516 23.6797C80.3464 23.4922 79.9427 23.224 79.6406 22.875C79.3438 22.5312 79.1589 22.1302 79.0859 21.6719L79.1016 21.6641H80.5078L80.5156 21.6719C80.5885 21.9896 80.8073 22.25 81.1719 22.4531C81.5365 22.6615 82.0208 22.7656 82.625 22.7656C83.3802 22.7656 83.9688 22.5938 84.3906 22.25C84.8177 21.9115 85.0312 21.4323 85.0312 20.8125V19.1094H84.9062C84.7292 19.4167 84.5078 19.6797 84.2422 19.8984C83.9766 20.1172 83.6771 20.2839 83.3438 20.3984C83.0104 20.5078 82.651 20.5625 82.2656 20.5625C81.5417 20.5625 80.9141 20.3906 80.3828 20.0469C79.8568 19.6979 79.4505 19.2188 79.1641 18.6094C78.8776 18 78.7344 17.3021 78.7344 16.5156V16.5C78.7344 15.7135 78.8776 15.0156 79.1641 14.4062C79.4557 13.7917 79.8672 13.3099 80.3984 12.9609C80.9297 12.6068 81.5625 12.4297 82.2969 12.4297C82.6927 12.4297 83.0573 12.4922 83.3906 12.6172C83.724 12.7422 84.0182 12.9193 84.2734 13.1484C84.5339 13.3776 84.75 13.651 84.9219 13.9688H85.0156V12.5781H86.375V20.8828C86.375 21.5078 86.2214 22.0521 85.9141 22.5156C85.612 22.9792 85.1797 23.3359 84.6172 23.5859C84.0547 23.8411 83.3906 23.9688 82.625 23.9688ZM82.5625 19.3594C83.0833 19.3594 83.5286 19.2396 83.8984 19C84.2734 18.7552 84.5599 18.4193 84.7578 17.9922C84.9609 17.5651 85.0625 17.0729 85.0625 16.5156V16.5C85.0625 15.9427 84.9609 15.4479 84.7578 15.0156C84.5599 14.5833 84.2734 14.2448 83.8984 14C83.5286 13.7552 83.0833 13.6328 82.5625 13.6328C82.0417 13.6328 81.599 13.7552 81.2344 14C80.875 14.2448 80.599 14.5833 80.4062 15.0156C80.2188 15.4479 80.125 15.9427 80.125 16.5V16.5156C80.125 17.0729 80.2188 17.5651 80.4062 17.9922C80.599 18.4193 80.875 18.7552 81.2344 19C81.599 19.2396 82.0417 19.3594 82.5625 19.3594ZM96.1562 21V11.2891H96.0312L93.1641 13.3672V11.8828L96.1641 9.72656H97.5625V21H96.1562ZM101.547 21.0781C101.271 21.0781 101.031 20.9792 100.828 20.7812C100.63 20.5781 100.531 20.3385 100.531 20.0625C100.531 19.7812 100.63 19.5417 100.828 19.3438C101.031 19.1458 101.271 19.0469 101.547 19.0469C101.828 19.0469 102.068 19.1458 102.266 19.3438C102.464 19.5417 102.562 19.7812 102.562 20.0625C102.562 20.3385 102.464 20.5781 102.266 20.7812C102.068 20.9792 101.828 21.0781 101.547 21.0781ZM108.539 21.2656C108.023 21.2656 107.513 21.1667 107.008 20.9688C106.508 20.7708 106.052 20.4505 105.641 20.0078C105.234 19.5651 104.909 18.9818 104.664 18.2578C104.419 17.5286 104.297 16.6328 104.297 15.5703V15.5547C104.297 14.2734 104.469 13.1797 104.812 12.2734C105.156 11.362 105.651 10.6667 106.297 10.1875C106.943 9.70312 107.721 9.46094 108.633 9.46094C109.263 9.46094 109.831 9.57812 110.336 9.8125C110.846 10.0417 111.271 10.3646 111.609 10.7812C111.953 11.1927 112.188 11.6771 112.312 12.2344L112.336 12.3359H110.922L110.891 12.25C110.776 11.9323 110.612 11.6615 110.398 11.4375C110.19 11.2083 109.935 11.0312 109.633 10.9062C109.336 10.7812 108.997 10.7188 108.617 10.7188C107.935 10.7188 107.38 10.9193 106.953 11.3203C106.526 11.7161 106.208 12.2448 106 12.9062C105.797 13.5625 105.68 14.2839 105.648 15.0703C105.643 15.138 105.641 15.2083 105.641 15.2812C105.641 15.349 105.641 15.4193 105.641 15.4922L105.977 17.3672C105.977 17.862 106.089 18.3099 106.312 18.7109C106.542 19.112 106.849 19.4323 107.234 19.6719C107.62 19.9062 108.049 20.0234 108.523 20.0234C108.997 20.0234 109.427 19.9089 109.812 19.6797C110.198 19.4453 110.503 19.1302 110.727 18.7344C110.956 18.3385 111.07 17.8984 111.07 17.4141V17.3984C111.07 16.8984 110.961 16.4557 110.742 16.0703C110.529 15.6797 110.232 15.375 109.852 15.1562C109.471 14.9323 109.036 14.8203 108.547 14.8203C108.062 14.8203 107.625 14.9297 107.234 15.1484C106.849 15.3672 106.542 15.6693 106.312 16.0547C106.089 16.4349 105.977 16.8698 105.977 17.3594V17.3672H105.516V15.3359H105.789C105.93 15.0286 106.138 14.7422 106.414 14.4766C106.69 14.2109 107.029 13.9974 107.43 13.8359C107.831 13.6745 108.284 13.5938 108.789 13.5938C109.497 13.5938 110.13 13.7578 110.688 14.0859C111.245 14.4141 111.682 14.862 112 15.4297C112.323 15.9974 112.484 16.6432 112.484 17.3672V17.3828C112.484 18.1328 112.312 18.7995 111.969 19.3828C111.63 19.9661 111.164 20.4271 110.57 20.7656C109.977 21.099 109.299 21.2656 108.539 21.2656Z" fill="#FAFAFA"/>
<defs>
<clipPath id="clip0_253_4109">
<rect width="30" height="30" fill="white"/>
</clipPath>
</defs>
</svg>
